<svg fill="#4C4C4C" xmlns="http://www.w3.org/2000/svg" xmlns:xlink="http://www.w3.org/1999/xlink" version="1.1" preserveAspectRatio="none" x="0px" y="0px" viewBox="0 0 100 100"><defs><g id="a"><path fill="#4C4C4C" stroke="none" d=" M 90 90 L 90 10 10 10 10 57.85 10 90 65.3 90 90 90 M 45.35 36.1 L 54.6 36.1 54.6 26.8 63.9 26.8 63.9 36.1 73.15 36.1 73.15 45.35 63.9 45.35 63.9 54.6 73.15 54.6 73.15 63.9 63.9 63.9 63.9 73.15 54.6 73.15 54.6 63.9 45.35 63.9 45.35 73.15 36.1 73.15 36.1 63.9 26.8 63.9 26.8 54.6 36.1 54.6 36.1 45.35 26.8 45.35 26.8 36.1 36.1 36.1 36.1 26.8 45.35 26.8 45.35 36.1 M 54.6 45.35 L 45.35 45.35 45.35 54.6 54.6 54.6 54.6 45.35 Z"></path></g></defs><g transform="matrix( 1, 0, 0, 1, 0,0) "><use xlink:href="#a"></use></g></svg>